<?xml version="1.0" encoding="utf-8"?>
<!-- Generator: Adobe Illustrator 21.1.0, SVG Export Plug-In . SVG Version: 6.00 Build 0)  -->
<svg version="1.1" id="Слой_1" xmlns="http://www.w3.org/2000/svg" xmlns:xlink="http://www.w3.org/1999/xlink" x="0px" y="0px"
	 viewBox="0 0 24 15" enable-background="new 0 0 24 15" xml:space="preserve">
<g>
	<rect fill="#FF0000" width="24" height="15"/>
	<rect x="6" fill="#FFFFFF" width="12" height="15"/>
	<path fill="#FF0000" d="M12,2.6l-0.8,1.5c-0.1,0.2-0.3,0.2-0.4,0.1l-0.6-0.3l0.4,2.3c0.1,0.4-0.2,0.4-0.4,0.2l-1-1.2L9,5.9
		C9,6,8.9,6.1,8.8,6.1L7.5,5.8L7.9,7C7.9,7.3,8,7.4,7.8,7.5L7.3,7.7l2.3,1.8c0.1,0.1,0.1,0.2,0.1,0.3l-0.2,0.6
		c0.8-0.1,1.5-0.2,2.2-0.3c0.1,0,0.2,0.1,0.2,0.2l-0.1,2.4h0.4l-0.1-2.4c0-0.1,0.1-0.2,0.2-0.2c0.8,0.1,1.5,0.2,2.2,0.3l-0.2-0.6
		c0-0.1,0-0.2,0.1-0.3l2.3-1.8l-0.5-0.2C16,7.4,16.1,7.3,16.1,7l0.3-1.2l-1.3,0.3C15.1,6.1,15,6,15,5.9l-0.2-0.6l-1,1.2
		c-0.1,0.2-0.4,0.2-0.4-0.2l0.4-2.3l-0.6,0.3c-0.2,0.1-0.3,0.1-0.4-0.1"/>
</g>
</svg>
