<?xml version="1.0" encoding="utf-8"?>
<!-- Generator: Adobe Illustrator 21.1.0, SVG Export Plug-In . SVG Version: 6.00 Build 0)  -->
<svg version="1.1" id="Слой_1" xmlns="http://www.w3.org/2000/svg" xmlns:xlink="http://www.w3.org/1999/xlink" x="0px" y="0px"
	 viewBox="0 0 76.8 70" enable-background="new 0 0 76.8 70" xml:space="preserve">
<g id="XMLID_435_">
	<rect id="XMLID_445_" fill="#B10514" width="76.8" height="70"/>
	<path id="XMLID_444_" fill="#FFD600" d="M3.6,49c0,3.2,0,5,0,7.6c12.1-6.9,35.1-17.1,69.9-19.9c0-0.6,0-1,0-1.6
		C47.9,36.4,23.8,41.2,3.6,49"/>
	<path id="XMLID_443_" fill="#FFFFFF" d="M3.6,59.4c0,2.6,0,4,0,5.2C20.9,51.7,46.2,42.9,73.5,40c0-0.6,0-1,0-1.6
		C46.6,40.8,22.9,48.1,3.6,59.4"/>
	<path id="XMLID_439_" fill="#FFD600" d="M42.3,17.7c-0.7,0-1.2-0.1-1.4-0.1c0-0.2,0-5.1,0-5.1c0-0.9,0-1.8,0.1-2.4
		c0.3-0.1,1.1-0.2,1.6-0.2c2.8,0,4,1.2,4,3.7C46.6,17.1,43.9,17.6,42.3,17.7 M47.3,24.4c0,3.5-1.9,4.9-4.9,4.9
		c-0.6,0-1.2-0.1-1.6-0.2c0-0.2,0-9.6,0-9.8c0.2,0,1.3,0,1.3,0C45.9,19.3,47.3,21.2,47.3,24.4 M46.1,18.2c2.6-0.7,4.9-2.6,4.9-5.5
		c0-2.7-1.8-4.6-5.4-4.6c-1.7,0-3.9,0.2-5.5,0.2c-1.6,0-3.2,0-5.1-0.1l-0.1,0v1.3l0.1,0c1.6,0.1,1.7,0.4,1.7,3v15.1
		c0,1.4-0.2,2-1.4,2.1l-0.4,0v1.3c1.2-0.1,3.4-0.1,4.4-0.1c1,0,1.7,0.1,2.9,0.1c7.3,0.3,9.7-3.8,9.7-7.2
		C51.8,19.8,48.9,18.8,46.1,18.2L46.1,18.2z"/>
	<path id="XMLID_438_" fill="#FFD600" d="M23.3,27.9c-1.4,0.9-3.1,1.3-5,1.3c-5.1,0-7.7-4-7.7-10.2c0-5.5,2.5-9.2,7.1-9.2
		c1.6,0,2.9,0.6,3.7,1.4c0.1,0.5,0.3,3.2,0.3,3.2l1.3,0v-0.1c0-1.2,0.3-3.9,0.6-5.3l0-0.1l-0.1,0c-1.8-0.5-3.7-0.9-6.2-0.9
		C11.7,7.9,6,11.4,6,19.3c0,8.3,5.1,11.9,11.2,11.9c1.7,0,3.9-0.3,5.7-1.2l0,0l0.9-1.7L23.3,27.9L23.3,27.9"/>
	<path id="XMLID_437_" fill="#FFD600" d="M70.7,27.9c-1.4,0.9-3.1,1.3-5,1.3c-5.1,0-7.7-4-7.7-10.2c0-5.5,2.5-9.2,7.1-9.2
		c1.6,0,2.9,0.6,3.7,1.4c0.1,0.5,0.3,3.2,0.3,3.2l1.3,0l0-0.1c0-1.2,0.3-3.9,0.6-5.3l0-0.1l-0.1,0c-1.8-0.5-3.7-0.9-6.2-0.9
		c-5.7,0-11.4,3.4-11.4,11.4c0,8.3,5.1,11.9,11.2,11.9c1.7,0,3.9-0.3,5.7-1.2l0,0l0.9-1.7L70.7,27.9L70.7,27.9"/>
	<path id="XMLID_436_" fill="#FFD600" d="M29.2,8.3c-1.3,0-2.8,0-4.1-0.1l-0.1,0v1.3l0.1,0c1.7,0.1,1.9,0.4,1.9,3.2V27
		c0,2.2-0.1,2.5-1.8,2.6l-0.1,0v1.3l0.1,0c1.3-0.1,2.6-0.1,3.9-0.1c1.3,0,2.5,0,3.9,0.1l0.1,0v-1.3l-0.1,0c-1.7-0.1-1.8-0.4-1.8-2.6
		V12.7c0-2.9,0.1-3.1,1.8-3.2l0.1,0V8.2l-0.1,0C31.7,8.3,30.5,8.3,29.2,8.3"/>
</g>
</svg>
