<svg xmlns="http://www.w3.org/2000/svg" viewBox="0 0 24 15">
    <path fill="#F00" d="M0 0h24v15H0z"/>
    <path fill="#FFF" d="M6 0h12v15H6z"/>
    <path fill="#F00" d="M12 2.6l-.8 1.5c-.1.2-.3.2-.4.1l-.6-.3.4 2.3c.1.4-.2.4-.4.2l-1-1.2-.2.7c0 .1-.1.2-.2.2l-1.3-.3.4 1.2c0 .3.1.4-.1.5l-.5.2 2.3 1.8c.1.1.1.2.1.3l-.2.6c.8-.1 1.5-.2 2.2-.3.1 0 .2.1.2.2l-.1 2.4h.4l-.1-2.4c0-.1.1-.2.2-.2.8.1 1.5.2 2.2.3l-.2-.6c0-.1 0-.2.1-.3l2.3-1.8-.5-.2c-.2-.1-.1-.2-.1-.5l.3-1.2-1.3.3S15 6 15 5.9l-.2-.6-1 1.2c-.1.2-.4.2-.4-.2l.4-2.3-.6.3c-.2.1-.3.1-.4-.1"/>
</svg>
