<svg xmlns="http://www.w3.org/2000/svg" viewBox="0 0 576.8 340.5">
    <linearGradient id="a" gradientUnits="userSpaceOnUse" x1="287.767" y1="339.5" x2="287.767" y2="44.5">
        <stop offset="0" stop-color="#fff"/>
        <stop offset="1" stop-color="#98b2cd"/>
    </linearGradient>
    <path fill="url(#a)" d="M.3 295l141.4-89.5 134.6 53 152-74 147-140v295H.3z"/>
    <path fill="none" stroke="#30659B" stroke-miterlimit="10" d="M.3 295l141.4-89.5 134.6 53 152-74 147-140"/>
    <g fill="none" stroke="#D60034" stroke-miterlimit="10">
        <path d="M.3 262l1.3-.7"/>
        <path stroke-dasharray="2.9942,2.9942" d="M4.3 260l137.4-67.5 134.6 3 152-24 144.2-58.9"/>
        <path d="M573.9 112.1l1.4-.6"/>
    </g>
    <path opacity=".1" fill="none" stroke="#333" stroke-miterlimit="10" d="M.8 308h576"/>
    <path opacity=".1" fill="none" stroke="#333" stroke-miterlimit="10" d="M.8 273.8h576"/>
    <path opacity=".1" fill="none" stroke="#333" stroke-miterlimit="10" d="M.8 239.7h576"/>
    <path opacity=".1" fill="none" stroke="#333" stroke-miterlimit="10" d="M.8 205.5h576"/>
    <path opacity=".1" fill="none" stroke="#333" stroke-miterlimit="10" d="M.8 171.3h576"/>
    <path opacity=".1" fill="none" stroke="#333" stroke-miterlimit="10" d="M.8 137.2h576"/>
    <path opacity=".1" fill="none" stroke="#333" stroke-miterlimit="10" d="M.8 103h576"/>
    <path opacity=".1" fill="none" stroke="#333" stroke-miterlimit="10" d="M.8 68.8h576"/>
    <path opacity=".1" fill="none" stroke="#333" stroke-miterlimit="10" d="M.8 34.7h576"/>
    <path opacity=".1" fill="none" stroke="#333" stroke-miterlimit="10" d="M.8.5h576"/>
    <path fill="none" stroke="#333" stroke-miterlimit="10" d="M.8 1v339h576"/>
</svg>
