<svg xmlns="http://www.w3.org/2000/svg" viewBox="0 0 76.8 70">
    <path fill="#B10514" d="M0 0h76.8v70H0z"/>
    <path fill="#FFD600" d="M3.6 49v7.6c12.1-6.9 35.1-17.1 69.9-19.9v-1.6C47.9 36.4 23.8 41.2 3.6 49"/>
    <path fill="#FFF" d="M3.6 59.4v5.2C20.9 51.7 46.2 42.9 73.5 40v-1.6c-26.9 2.4-50.6 9.7-69.9 21"/>
    <path fill="#FFD600" d="M42.3 17.7c-.7 0-1.2-.1-1.4-.1v-5.1c0-.9 0-1.8.1-2.4.3-.1 1.1-.2 1.6-.2 2.8 0 4 1.2 4 3.7 0 3.5-2.7 4-4.3 4.1m5 6.7c0 3.5-1.9 4.9-4.9 4.9-.6 0-1.2-.1-1.6-.2v-9.8h1.3c3.8 0 5.2 1.9 5.2 5.1m-1.2-6.2c2.6-.7 4.9-2.6 4.9-5.5 0-2.7-1.8-4.6-5.4-4.6-1.7 0-3.9.2-5.5.2s-3.2 0-5.1-.1h-.1v1.3h.1c1.6.1 1.7.4 1.7 3v15.1c0 1.4-.2 2-1.4 2.1h-.4V31c1.2-.1 3.4-.1 4.4-.1 1 0 1.7.1 2.9.1 7.3.3 9.7-3.8 9.7-7.2-.1-4-3-5-5.8-5.6z"/>
    <path fill="#FFD600" d="M23.3 27.9c-1.4.9-3.1 1.3-5 1.3-5.1 0-7.7-4-7.7-10.2 0-5.5 2.5-9.2 7.1-9.2 1.6 0 2.9.6 3.7 1.4.1.5.3 3.2.3 3.2H23v-.1c0-1.2.3-3.9.6-5.3v-.1h-.1c-1.8-.5-3.7-.9-6.2-.9C11.7 7.9 6 11.4 6 19.3c0 8.3 5.1 11.9 11.2 11.9 1.7 0 3.9-.3 5.7-1.2l.9-1.7-.5-.4"/>
    <path fill="#FFD600" d="M70.7 27.9c-1.4.9-3.1 1.3-5 1.3-5.1 0-7.7-4-7.7-10.2 0-5.5 2.5-9.2 7.1-9.2 1.6 0 2.9.6 3.7 1.4.1.5.3 3.2.3 3.2h1.3v-.1c0-1.2.3-3.9.6-5.3v-.1h-.1c-1.8-.5-3.7-.9-6.2-.9-5.7 0-11.4 3.4-11.4 11.4 0 8.3 5.1 11.9 11.2 11.9 1.7 0 3.9-.3 5.7-1.2l.9-1.7-.4-.5"/>
    <path fill="#FFD600" d="M29.2 8.3c-1.3 0-2.8 0-4.1-.1H25v1.3h.1c1.7.1 1.9.4 1.9 3.2V27c0 2.2-.1 2.5-1.8 2.6h-.1v1.3h.1c1.3-.1 2.6-.1 3.9-.1 1.3 0 2.5 0 3.9.1h.1v-1.3H33c-1.7-.1-1.8-.4-1.8-2.6V12.7c0-2.9.1-3.1 1.8-3.2h.1V8.2H33c-1.3.1-2.5.1-3.8.1"/>
</svg>
