<?xml version="1.0" encoding="UTF-8"?><!DOCTYPE svg PUBLIC "-//W3C//DTD SVG 1.1//EN" "http://www.w3.org/Graphics/SVG/1.1/DTD/svg11.dtd"><svg xmlns="http://www.w3.org/2000/svg"><symbol id="icon-date" viewBox="0 0 24 24">
    <path d="M19 19H5V8h14m-3-7v2H8V1H6v2H5c-1.11 0-2 .89-2 2v14a2 2 0 0 0 2 2h14a2 2 0 0 0 2-2V5a2 2 0 0 0-2-2h-1V1m-1 11h-5v5h5v-5z"/>
</symbol><symbol id="icon-exel" viewBox="0 0 24 24">
    <path d="M6 2h8l6 6v12a2 2 0 0 1-2 2H6a2 2 0 0 1-2-2V4a2 2 0 0 1 2-2m7 1.5V9h5.5L13 3.5m4 7.5h-4v2h1l-2 1.67L10 13h1v-2H7v2h1l3 2.5L8 18H7v2h4v-2h-1l2-1.67L14 18h-1v2h4v-2h-1l-3-2.5 3-2.5h1v-2z"/>
</symbol><symbol id="icon-facebook" viewBox="0 0 10 19">
    <title>
        facebook
    </title>
    <path d="M9.766.157v2.946H8.014c-.64 0-1.071.134-1.295.402-.223.268-.335.67-.335 1.205v2.11h3.27l-.435 3.303H6.384v8.471H2.97v-8.47H.123V6.82H2.97V4.387c0-1.384.387-2.457 1.161-3.22C4.904.404 5.934.023 7.222.023c1.093 0 1.941.045 2.544.134z" fill-rule="evenodd"/>
</symbol><symbol id="icon-shield" viewBox="0 0 14.6 19.6">
    <path d="M.5 13.6C.1 12.6 0 2.4 0 2.4L7.3 0l7.3 2.4s-.1 10.2-.5 11.2-5.3 6-6.8 6-6.5-5-6.8-6zM7.3 2.5L.9 4.6v1.1l6.4-2.1 6.4 2.1V4.6L7.3 2.5z"/>
</symbol></svg>